PathFileType	4	(X/Y/Z)	C:/Users/opensim2020/Desktop/walking_exp_matlab/subject01_walking12_straight_02.trc																																																																																																																																		
DataRate	CameraRate	NumFrames	NumMarkers	Units	OrigDataRate	OrigDataStartFrame	OrigNumFrames																																																																																																																														
100	100	8	44	mm	100	1262	122																																																																																																																														
Frame#	Time	LFHD			RFHD			LBHD			RBHD			C7			T10			CLAV			STRN			RBAK			LSHO			LUPA			LELB			LFRM			LWRA			LWRB			LFIN			RSHO			RUPA			RELB			RFRM			RWRA			RWRB			RFIN			LASI			RASI			LPSI			RPSI			LTHI			LKNE			LTIB			LANK			LHEE			LTOE			RTHI			RKNE			RTIB			RANK			RHEE			RTOE			*39			*40			*41			*42			*43		
		X1	Y1	Z1	X2	Y2	Z2	X3	Y3	Z3	X4	Y4	Z4	X5	Y5	Z5	X6	Y6	Z6	X7	Y7	Z7	X8	Y8	Z8	X9	Y9	Z9	X10	Y10	Z10	X11	Y11	Z11	X12	Y12	Z12	X13	Y13	Z13	X14	Y14	Z14	X15	Y15	Z15	X16	Y16	Z16	X17	Y17	Z17	X18	Y18	Z18	X19	Y19	Z19	X20	Y20	Z20	X21	Y21	Z21	X22	Y22	Z22	X23	Y23	Z23	X24	Y24	Z24	X25	Y25	Z25	X26	Y26	Z26	X27	Y27	Z27	X28	Y28	Z28	X29	Y29	Z29	X30	Y30	Z30	X31	Y31	Z31	X32	Y32	Z32	X33	Y33	Z33	X34	Y34	Z34	X35	Y35	Z35	X36	Y36	Z36	X37	Y37	Z37	X38	Y38	Z38	X39	Y39	Z39	X40	Y40	Z40	X41	Y41	Z41	X42	Y42	Z42	X43	Y43	Z43	X44	Y44	Z44
																																																																																																																																					
16	0.15	-772.28412	1669.14832	-1525.02075	-751.64783	1678.59937	-1414.255	-888.25848	1627.94543	-1507.66785	-870.20862	1636.97046	-1389.75439	-930.00635	1436.854	-1460.46021	-970.04962	1143.3822	-1449.5155	-788.84357	1365.80579	-1458.86902	-747.35339	1211.19238	-1461.42102	-987.64801	1243.05103	-1379.73169	-847.71582	1393.22888	-1619.98462	-866.22064	1208.93689	-1705.07593	-868.40552	1057.7196	-1708.62073	-818.58337	956.36566	-1737.20898	-726.58105	850.67358	-1725.70813	-782.1391	839.90656	-1746.89087	-728.02533	776.40076	-1761.18433	-850.39362	1396.0686	-1307.85742	-908.01306	1198.42188	-1203.60486	-909.70563	1071.16357	-1200.41211	-872.02191	954.11322	-1175.56628	-784.14807	845.77032	-1205.44604	-824.07642	841.53223	-1162.85828	-779.74341	769.24927	-1169.63977	-793.0423	936.98633	-1557.83997	-793.57703	937.32141	-1341.16516	-978.92548	947.6131	-1504.82678	-975.94574	946.65503	-1359.37646	-808.15973	602.31598	-1602.02454	-809.09198	467.92215	-1578.01196	-869.26575	286.94931	-1580.33728	-917.10773	76.43299	-1525.40881	-964.07898	49.10621	-1472.16016	-772.09631	37.05777	-1532.32825	-774.00586	609.50653	-1274.03967	-742.48151	455.85992	-1289.66064	-887.54449	359.19852	-1286.05371	-1040.75391	221.121	-1328.96997	-1097.49768	225.71622	-1383.19043	-984.34863	89.37926	-1321.49182	-763.61267	1711.88318	-1437.20923	-1973.07581	1023.41302	3102.07227	-2012.44141	1022.19727	3140.74976	NaN	NaN	NaN	NaN	NaN	NaN
17	0.16	-760.5249	1669.69958	-1525.38562	-739.98517	1678.94995	-1414.64575	-876.70062	1628.96362	-1508.31482	-858.81207	1637.66089	-1390.38257	-919.03333	1437.4502	-1461.55969	-959.15668	1144.04749	-1450.88074	-777.95514	1366.61548	-1459.83325	-736.37885	1211.97412	-1462.56311	-976.83557	1243.72156	-1381.00232	-836.64838	1394.30493	-1620.94055	-853.56305	1210.30042	-1706.73279	-853.47565	1058.82751	-1710.84827	-800.86188	958.88806	-1739.80908	-705.62329	856.1153	-1728.95117	-760.92017	843.61243	-1749.77283	-704.92993	782.07489	-1764.75684	-839.61865	1396.62427	-1308.70581	-898.45044	1198.93665	-1205.08398	-900.87158	1071.89526	-1202.20496	-865.71564	954.36279	-1176.67798	-780.11914	843.84937	-1205.56128	-820.45551	840.81085	-1162.7793	-777.68451	767.40509	-1169.41846	-782.86914	937.49908	-1559.45276	-782.33478	938.74237	-1342.96143	-968.50037	948.38458	-1505.05664	-964.70178	947.65448	-1359.63464	-803.4303	601.95898	-1602.58691	-806.79004	467.73822	-1579.0072	-868.46021	287.06772	-1580.84424	-916.85657	76.81013	-1525.37756	-964.17645	50.13552	-1472.24304	-772.37903	37.1244	-1532.75195	-756.7265	612.73151	-1275.50891	-722.15833	459.53979	-1291.67151	-863.55408	357.61118	-1288.18945	-1012.05408	213.91983	-1330.71375	-1069.72229	215.43365	-1384.45642	-948.48755	85.84901	-1323.56091	-751.81659	1712.26855	-1437.38879	-1973.13538	1023.34973	3101.89551	-2012.49414	1022.06604	3140.68042	NaN	NaN	NaN	NaN	NaN	NaN
18	0.17	-748.84894	1670.104	-1525.72437	-728.46173	1679.0542	-1414.89343	-865.20575	1629.77319	-1508.92761	-847.40686	1638.17236	-1390.9093	-908.00317	1437.92761	-1462.57129	-948.33258	1144.55591	-1452.26172	-766.99536	1367.13037	-1460.74744	-725.48804	1212.54834	-1463.71313	-965.97076	1244.19946	-1382.28516	-825.58466	1395.26465	-1621.8092	-841.06305	1211.53247	-1708.35486	-838.66693	1059.87439	-1713.05359	-783.24902	961.36328	-1742.36206	-684.8335	861.72388	-1732.07275	-739.82843	847.44031	-1752.57129	-681.92767	787.84094	-1768.13147	-828.80865	1396.89844	-1309.62781	-888.93878	1199.31812	-1206.50793	-892.05096	1072.57129	-1203.96191	-859.47772	954.59125	-1177.72327	-776.10864	842.11011	-1205.56299	-817.24548	840.22156	-1162.79883	-775.4953	765.73431	-1169.2168	-772.89935	937.89923	-1560.96021	-771.34924	939.97308	-1344.77905	-958.13434	949.01343	-1505.31812	-953.54901	948.59161	-1359.93933	-798.43512	601.71436	-1603.30396	-804.4942	467.51563	-1579.91931	-867.67322	287.29611	-1581.31531	-916.54138	77.22622	-1525.19824	-963.90204	50.7082	-1471.88049	-772.15247	37.10014	-1532.755	-739.81281	615.81555	-1276.76624	-702.60645	463.32526	-1293.90796	-839.72595	355.41901	-1290.01282	-982.60742	205.72993	-1332.29907	-1040.7749	204.1028	-1385.88635	-912.59802	81.87924	-1325.24878	-740.02124	1712.5752	-1437.66895	-1973.26819	1023.39648	3101.87988	-2012.4823	1022.07471	3140.81421	NaN	NaN	NaN	NaN	NaN	NaN
19	0.18	-737.2204	1670.3761	-1526.07849	-717.01221	1679.07056	-1415.15503	-853.73639	1630.36462	-1509.50415	-836.09229	1638.52014	-1391.43188	-896.95355	1438.23645	-1463.53491	-937.47998	1144.97705	-1453.58972	-756.00824	1367.49121	-1461.60144	-714.39276	1213.03931	-1464.87354	-955.0152	1244.52332	-1383.64221	-814.43585	1396.02722	-1622.70239	-828.65765	1212.63135	-1709.90869	-824.00891	1060.87085	-1715.22131	-765.75537	963.8269	-1744.82471	-664.25348	867.27283	-1734.97644	-718.8479	851.29358	-1755.04138	-659.05072	793.76221	-1771.33691	-818.13245	1397.14307	-1310.51624	-879.48926	1199.53015	-1208.07288	-883.25928	1073.09229	-1205.56238	-853.17816	954.72546	-1178.63684	-772.14642	840.35645	-1205.51306	-813.6571	839.49048	-1162.76672	-773.54791	764.03876	-1168.8075	-762.9361	938.07111	-1562.31335	-760.4502	941.01801	-1346.43066	-947.76636	949.46997	-1505.67749	-942.45593	949.2655	-1360.1842	-793.35272	601.40515	-1603.83862	-802.03107	467.2381	-1580.73816	-866.72107	287.63605	-1581.6958	-916.16125	77.68061	-1524.95447	-963.73169	51.64751	-1471.625	-772.02167	37.14492	-1532.85095	-723.34479	618.66467	-1277.95776	-683.83752	466.56668	-1296.18945	-816.11932	352.36823	-1291.51709	-952.73761	196.94423	-1334.24634	-1010.70135	191.50069	-1387.19397	-875.12854	77.61742	-1326.96216	-728.39282	1712.66931	-1437.84924	-1973.16736	1023.50018	3101.89331	-2012.47546	1021.96735	3140.7395	NaN	NaN	NaN	NaN	NaN	NaN
20	0.19	-725.68005	1670.54016	-1526.30579	-705.54724	1679.00391	-1415.38525	-842.26807	1630.69995	-1510.0155	-824.79626	1638.55981	-1391.96179	-885.81073	1438.41028	-1464.43555	-926.68427	1145.26514	-1454.82935	-744.98785	1367.63599	-1462.43286	-703.49744	1213.18823	-1465.99658	-944.02441	1244.65161	-1385.01733	-803.30499	1396.63257	-1623.54285	-816.31567	1213.55298	-1711.41443	-809.41138	1061.65808	-1717.30566	-748.38995	966.19409	-1747.1626	-643.8847	872.97211	-1737.7832	-698.04083	855.18433	-1757.51282	-636.45331	799.76996	-1774.32385	-807.16205	1397.16577	-1311.38745	-870.05341	1199.62561	-1209.41614	-874.4729	1073.51245	-1206.8645	-846.89337	954.84125	-1179.54138	-768.09143	838.67346	-1205.35632	-810.16626	839.06763	-1163.2146	-771.50275	762.42993	-1168.4436	-752.91339	938.07233	-1563.55884	-749.35419	941.97296	-1347.98865	-937.53058	949.71436	-1506.00781	-931.34485	949.70605	-1360.45422	-787.75421	600.67542	-1604.29846	-799.25134	466.94296	-1581.3822	-865.57336	288.07233	-1582.1731	-915.96222	78.3566	-1524.75671	-963.56458	52.60982	-1471.24438	-771.91394	36.84171	-1532.91284	-707.46307	621.12408	-1279.0343	-664.7276	469.30612	-1298.04419	-792.25714	348.70557	-1293.27698	-922.05865	187.38258	-1336.10364	-980.26123	178.75186	-1389.59778	-837.27637	73.82311	-1328.23889	-716.89142	1712.59009	-1437.96912	-1973.16016	1023.3764	3101.99292	-2012.47009	1021.953	3140.66016	NaN	NaN	NaN	NaN	NaN	NaN
21	0.2	-714.1637	1670.5675	-1526.55933	-694.30737	1678.71997	-1415.54651	-830.79968	1630.81409	-1510.54858	-813.52484	1638.45483	-1392.35852	-874.63361	1438.45007	-1465.33813	-915.82672	1145.4187	-1456.03027	-733.85498	1367.61792	-1463.27563	-692.39148	1213.17969	-1467.1731	-932.9624	1244.58154	-1386.32312	-792.03516	1397.05176	-1624.349	-804.03601	1214.31543	-1712.87561	-794.89392	1062.255	-1719.26782	-731.14178	968.50134	-1749.44543	-623.7464	878.56757	-1740.4397	-677.39185	859.21655	-1760.12744	-614.15253	805.82123	-1777.2179	-796.28235	1397.02295	-1312.15564	-860.71442	1199.5166	-1210.78015	-865.70477	1073.70691	-1208.36975	-840.62317	954.93439	-1180.43213	-763.89868	836.909	-1205.04968	-806.03833	838.16583	-1163.26306	-769.20868	760.79504	-1167.90833	-742.9491	937.7431	-1564.65674	-738.3125	942.39093	-1349.3175	-927.16925	949.64075	-1506.27063	-920.34296	949.92505	-1360.703	-782.32147	600.2406	-1604.92932	-796.04272	466.71869	-1582.00256	-864.17908	288.54364	-1582.62598	-915.72253	79.1308	-1524.64331	-963.27557	53.74042	-1470.92285	-772.24609	36.91206	-1533.19238	-691.84985	623.38776	-1279.90503	-647.02289	471.77917	-1300.05603	-768.68005	344.62787	-1294.85022	-890.6181	177.3508	-1338.00183	-948.39392	164.96947	-1391.63623	-798.54993	69.75418	-1329.91443	-705.49048	1712.44238	-1438.15308	-1973.13953	1023.88654	3101.90967	-2012.56226	1022.02863	3140.73315	NaN	NaN	NaN	NaN	NaN	NaN
22	0.21	-702.63477	1670.48645	-1526.80554	-682.94421	1678.35327	-1415.70068	-819.34344	1630.72485	-1511.0199	-802.24219	1638.05408	-1392.76172	-863.38812	1438.38464	-1466.19812	-904.99384	1145.40808	-1457.07373	-722.62097	1367.28674	-1464.0249	-681.54895	1212.79553	-1468.22876	-921.90192	1244.375	-1387.6582	-780.77606	1397.27234	-1625.12329	-791.76642	1214.88159	-1714.28674	-780.49066	1062.69104	-1721.14966	-714.05835	970.68518	-1751.58081	-603.85919	884.28082	-1743.0166	-656.93915	863.21069	-1762.47278	-592.22034	812.00342	-1780.01599	-785.1839	1396.58923	-1312.78149	-851.39081	1199.3241	-1211.94727	-856.9129	1073.78625	-1209.68665	-834.09167	954.76196	-1181.0719	-759.6955	835.20221	-1204.80261	-802.21106	837.57806	-1163.37708	-766.9198	759.33289	-1167.55762	-732.97876	937.2395	-1565.66357	-727.28583	942.70746	-1350.66248	-916.8725	949.30902	-1506.42322	-909.26508	949.78864	-1360.83374	-776.88605	599.82098	-1605.27795	-792.80078	466.49869	-1582.68542	-862.50775	288.9397	-1582.99353	-915.45282	79.87729	-1524.50342	-963.01605	54.82354	-1470.60559	-771.9939	36.77835	-1533.01123	-676.66571	625.38873	-1280.87854	-629.79803	473.77664	-1302.23181	-745.17432	340.07184	-1296.65979	-858.49487	166.94772	-1340.03552	-916.14874	150.82144	-1394.0365	-759.01276	66.19979	-1331.19006	-694.47205	1711.85059	-1438.30652	-1973.09778	1023.4646	3101.88892	-2012.50781	1022.04309	3140.63525	NaN	NaN	NaN	NaN	NaN	NaN
23	0.22	-691.14429	1670.29736	-1526.85889	-671.70837	1677.91833	-1415.76831	-807.89166	1630.55139	-1511.50293	-790.92743	1637.57922	-1393.19531	-852.05402	1438.21509	-1466.99243	-894.09998	1145.28809	-1457.96326	-711.35901	1366.9231	-1464.71533	-670.61243	1212.32056	-1469.20093	-910.82257	1244.02673	-1388.89136	-769.37128	1397.29028	-1625.85303	-779.47943	1215.14148	-1715.43604	-766.23883	1062.98132	-1722.92224	-697.19812	972.78729	-1753.65698	-584.29272	889.90704	-1745.48083	-636.73456	867.16754	-1764.73132	-570.42511	818.08435	-1782.53271	-774.10065	1396.04773	-1313.47034	-841.87317	1198.91943	-1213.1615	-848.13263	1073.75964	-1210.76843	-827.54242	954.59088	-1181.8573	-755.31201	833.48157	-1204.5094	-798.15216	836.78406	-1163.38037	-764.29651	757.8739	-1167.26331	-723.00153	936.49652	-1566.52307	-715.9353	942.67938	-1351.59668	-906.62299	948.78619	-1506.46362	-898.28729	949.39771	-1360.85193	-771.20325	599.65088	-1605.62793	-789.34613	466.22668	-1583.31592	-860.70813	289.35291	-1583.3103	-915.1283	80.47252	-1524.29126	-962.37292	55.6021	-1470.09473	-771.55603	36.59111	-1532.97412	-661.90314	626.84497	-1281.59094	-613.54242	475.45975	-1303.97632	-721.86737	335.21884	-1298.67188	-825.47833	156.12975	-1341.85132	-882.02966	136.40475	-1396.05933	-719.55365	62.58293	-1332.3186	-682.89648	1711.73425	-1438.28552	-1973.20178	1023.52472	3101.97754	-2012.58325	1022.00732	3140.66284	NaN	NaN	NaN	NaN	NaN	NaN
